<?xml version="1.0" standalone="no"?>
<!DOCTYPE svg PUBLIC "-//W3C//DTD SVG 20010904//EN"
 "http://www.w3.org/TR/2001/REC-SVG-20010904/DTD/svg10.dtd">
<svg version="1.0" xmlns="http://www.w3.org/2000/svg"
 width="899.000000pt" height="899.000000pt" viewBox="0 0 899.000000 899.000000"
 preserveAspectRatio="xMidYMid meet">
<metadata>
Created by potrace 1.11, written by Peter Selinger 2001-2013
</metadata>
<g transform="translate(0.000000,899.000000) scale(0.100000,-0.100000)"
fill="#000000" stroke="none">
<path d="M2950 7657 c-3 -3 -43 -7 -90 -11 -75 -6 -164 -17 -240 -31 -14 -3
-37 -7 -52 -10 -26 -5 -145 -31 -180 -39 -433 -106 -882 -334 -1233 -626 -324
-269 -566 -561 -767 -925 -40 -72 -117 -231 -139 -290 -11 -27 -26 -63 -33
-80 -64 -142 -152 -478 -182 -694 -3 -25 -8 -57 -10 -71 -30 -188 -24 -607 11
-835 3 -16 7 -48 11 -70 4 -32 26 -137 49 -235 62 -273 188 -581 348 -850 52
-87 159 -249 189 -285 9 -11 39 -49 67 -84 189 -238 469 -495 711 -653 202
-131 357 -212 625 -323 135 -57 486 -149 648 -170 27 -4 58 -8 69 -10 102 -20
565 -28 719 -12 328 32 698 130 974 257 39 17 86 39 105 48 219 100 545 323
755 516 l60 55 1190 2 c655 0 1210 3 1235 5 142 13 315 62 451 129 500 246
792 772 736 1325 -7 66 -8 74 -28 168 -35 171 -149 401 -264 537 -99 116 -234
235 -323 285 -23 13 -42 27 -42 30 0 4 19 41 43 83 146 255 207 608 153 873
-2 12 -7 39 -10 60 -4 21 -22 85 -42 143 -133 398 -453 712 -854 839 -94 30
-124 37 -210 48 -25 4 -52 8 -60 10 -8 1 -456 3 -995 4 l-980 1 -60 55 c-215
198 -493 387 -756 517 -268 131 -619 241 -901 282 -21 3 -53 7 -70 10 -18 2
-58 7 -88 11 -65 7 -534 17 -540 11z"/>
</g>
</svg>
